<svg width="78" height="20" viewBox="0 0 78 20" fill="none" xmlns="http://www.w3.org/2000/svg">
<path d="M20.5705 11.5278L17.5985 15.6153C17.3981 15.8911 17.3708 16.2333 17.5258 16.537C17.6804 16.8407 17.9729 17.0201 18.3138 17.0201H19.611C19.9127 17.0201 20.1717 16.8832 20.3415 16.6344L22.6702 13.2221H22.7116L25.04 16.6344C25.2102 16.8835 25.4691 17.0201 25.7705 17.0201H27.0752C27.4161 17.0201 27.708 16.8411 27.863 16.5374C28.018 16.234 27.9916 15.8924 27.7916 15.6167L24.8294 11.5262C24.6014 11.2113 24.6017 10.8026 24.8301 10.4877L27.7883 6.41466C27.9887 6.13891 28.0153 5.79735 27.8607 5.4933C27.7057 5.18926 27.4132 5.01025 27.0723 5.01025H25.7692C25.4685 5.01025 25.2102 5.14648 25.0397 5.39426L22.7116 8.7878H22.6702L20.3418 5.39426C20.1717 5.14615 19.913 5.01025 19.6123 5.01025H18.3165C17.9752 5.01025 17.683 5.18959 17.5281 5.49396C17.3734 5.79801 17.401 6.1399 17.6018 6.41564L20.5695 10.486C20.7992 10.8016 20.7998 11.2113 20.5702 11.5272L20.5705 11.5278Z" fill="white"/>
<path d="M40.0601 8.363C39.6711 7.40249 39.065 6.60421 38.243 5.96782C37.096 5.08003 35.658 4.63745 33.9301 4.63745C31.9535 4.63745 30.3184 5.24225 29.0328 6.45548C27.7472 7.66508 27.1046 9.18202 27.1046 11.007C27.1046 12.8283 27.7475 14.3452 29.0328 15.5584C30.3184 16.7677 31.9535 17.3761 33.9301 17.3761C35.658 17.3761 37.0992 16.9306 38.2532 16.0421C39.0808 15.4054 39.6866 14.6068 40.07 13.6466C40.1822 13.3656 40.1506 13.0731 39.9808 12.8223C39.8113 12.5719 39.5514 12.4341 39.249 12.4341H37.9324C37.6004 12.4341 37.3161 12.6025 37.1565 12.8937C36.8887 13.3824 36.5283 13.796 36.0762 14.131C35.4892 14.5663 34.7732 14.7842 33.9301 14.7842C32.8104 14.7842 31.8979 14.4245 31.1996 13.7059C30.5014 12.9872 30.1526 12.0849 30.1526 11.007C30.1526 9.92502 30.5014 9.0267 31.1996 8.30739C31.8979 7.58874 32.81 7.22941 33.9301 7.22941C34.7732 7.22941 35.4889 7.44692 36.0762 7.8862C36.5283 8.22381 36.8883 8.63546 37.1562 9.1218C37.3158 9.4117 37.5997 9.57951 37.9308 9.57951H39.2404C39.5438 9.57951 39.8047 9.44065 39.9739 9.18926C40.1433 8.93786 40.1743 8.64401 40.0604 8.363H40.0601Z" fill="white"/>
<path d="M41.909 17.0201H43.088C43.5754 17.0201 43.9725 16.6229 43.9725 16.1356V10.1359C44.0278 9.43439 44.3078 8.84341 44.8123 8.36299C45.291 7.91021 45.8527 7.67263 46.503 7.64664C46.9775 7.62788 47.3523 7.23762 47.3523 6.7628V5.61901C47.3523 5.33404 47.2312 5.0889 47.0048 4.91582C46.7784 4.74306 46.5099 4.69041 46.2351 4.76544C45.3608 5.00334 44.6198 5.63875 44.014 6.67297H43.9725V5.89508C43.9725 5.40775 43.5754 5.01058 43.088 5.01058H41.909C41.422 5.01058 41.0245 5.40775 41.0245 5.89508V16.1356C41.0245 16.6226 41.4217 17.0201 41.909 17.0201Z" fill="white"/>
<path d="M57.3022 10.9974C57.3022 12.0237 56.9461 12.898 56.2377 13.6239C55.5292 14.3498 54.6618 14.7124 53.6352 14.7124C52.6227 14.7124 51.7586 14.3498 51.0399 13.6239C50.321 12.898 49.9616 12.0237 49.9616 10.9974C49.9616 9.99178 50.321 9.12439 51.0399 8.3985C51.7586 7.6726 52.6227 7.30999 53.6352 7.30999C54.6546 7.30999 55.5223 7.6726 56.2344 8.39488C56.9461 9.11748 57.3022 9.98487 57.3022 10.9974ZM60.3709 10.9974C60.3709 9.21422 59.7003 7.71045 58.3594 6.48735C57.0185 5.26064 55.4424 4.64893 53.6312 4.64893C51.8205 4.64893 50.241 5.26064 48.9037 6.48735C47.5628 7.71045 46.8922 9.21422 46.8922 10.9974C46.8922 12.791 47.5661 14.3014 48.907 15.5281C50.2515 16.7519 51.8274 17.3665 53.6345 17.3665C55.4595 17.3665 57.0353 16.7515 58.3693 15.5281C59.7033 14.3014 60.3706 12.791 60.3706 10.9974H60.3709Z" fill="white"/>
<path d="M59.4627 5.01074L63.0583 15.8103C63.3031 16.5454 63.9619 17.0202 64.7365 17.0202H65.0037C65.7812 17.0202 66.4416 16.5418 66.6842 15.8027L68.7072 9.63823H68.745L70.7592 15.8008C71.001 16.5405 71.6621 17.0202 72.4403 17.0202H72.6983C73.4716 17.0202 74.129 16.5474 74.3751 15.8139L78 5.01074H76.2534C75.4663 5.01074 74.7986 5.50202 74.5643 6.25358L72.6048 12.5448H72.5634L70.5291 6.2368C70.2896 5.49379 69.6266 5.01074 68.846 5.01074H68.592C67.8082 5.01074 67.1422 5.49807 66.9056 6.24535L64.9089 12.5448H64.8674L62.8987 6.25128C62.6641 5.50103 61.9968 5.01074 61.2107 5.01074H59.4624H59.4627Z" fill="white"/>
<path fill-rule="evenodd" clip-rule="evenodd" d="M0 10.059V13.826C0 14.3976 0.299108 14.8875 0.807496 15.1485C1.31621 15.4088 1.8891 15.3666 2.35307 15.0333L4.94535 13.1732C5.34417 12.8872 5.562 12.4657 5.56496 11.9748C5.56793 11.4835 5.3547 11.0597 4.9595 10.7688L2.36721 8.8619C1.90456 8.52133 1.32839 8.47329 0.815393 8.73258C0.303056 8.99221 0.000329376 9.48447 0.000329376 10.059H0Z" fill="white"/>
<path fill-rule="evenodd" clip-rule="evenodd" d="M15.4017 8.19135V15.6921C15.4017 16.1107 15.1826 16.469 14.8108 16.6599C14.4386 16.8507 14.0194 16.8195 13.6798 16.576L8.51891 12.8712C8.22671 12.6619 8.06745 12.3536 8.06514 11.9942C8.06317 11.6346 8.21881 11.3246 8.50838 11.1117L13.6696 7.31509C14.0082 7.06599 14.43 7.03078 14.8048 7.22032C15.1803 7.41051 15.4017 7.7705 15.4017 8.19103V8.19135Z" fill="white"/>
<path fill-rule="evenodd" clip-rule="evenodd" d="M10.4132 19.8475H3.7637C3.34547 19.8475 2.9868 19.6287 2.79595 19.2568C2.60477 18.8847 2.6357 18.4658 2.87986 18.1259L6.16382 13.5504C6.3731 13.2585 6.68142 13.0993 7.04075 13.0969C7.4004 13.0946 7.71037 13.2506 7.92327 13.5402L11.2895 18.1157C11.5386 18.4543 11.5738 18.8758 11.3839 19.2509C11.1941 19.6267 10.8341 19.8478 10.4136 19.8478L10.4132 19.8475Z" fill="white"/>
<path fill-rule="evenodd" clip-rule="evenodd" d="M13.0854 0H1.09202C0.673465 0 0.315128 0.218819 0.124277 0.590651C-0.0665748 0.96314 -0.035317 1.38203 0.208183 1.72161L6.13116 9.97396C6.34077 10.2658 6.64876 10.4248 7.00842 10.4271C7.36807 10.4294 7.67804 10.2734 7.89061 9.98417L13.9613 1.73214C14.2104 1.39355 14.2456 0.972027 14.0561 0.596905C13.8659 0.221454 13.5056 0.000329376 13.0854 0.000329376V0Z" fill="white"/>
</svg>
