<svg width="128" height="33" viewBox="0 0 128 33" fill="none" xmlns="http://www.w3.org/2000/svg">
<path d="M34.1456 18.6742L29.3312 25.2957C29.0066 25.7424 28.9623 26.2967 29.2134 26.7887C29.4639 27.2807 29.9378 27.5712 30.49 27.5712H32.5913C33.0801 27.5712 33.4996 27.3495 33.7746 26.9465L37.547 21.4188H37.6141L41.3859 26.9465C41.6615 27.35 42.081 27.5712 42.5693 27.5712H44.6828C45.2351 27.5712 45.7079 27.2812 45.9589 26.7892C46.21 26.2978 46.1673 25.7445 45.8432 25.2978L41.0448 18.6715C40.6754 18.1614 40.6759 17.4994 41.0459 16.9892L45.8379 10.3912C46.1625 9.94455 46.2057 9.39125 45.9552 8.89871C45.7041 8.40618 45.2303 8.11621 44.678 8.11621H42.5672C42.08 8.11621 41.6615 8.33689 41.3854 8.73827L37.6141 14.2355H37.547L33.7752 8.73827C33.4996 8.33636 33.0806 8.11621 32.5934 8.11621H30.4943C29.9415 8.11621 29.4682 8.40672 29.2171 8.89978C28.9666 9.39231 29.0114 9.94615 29.3365 10.3928L34.144 16.9866C34.5161 17.4978 34.5172 18.1614 34.1451 18.6731L34.1456 18.6742Z" fill="black"/>
<path d="M65.7173 13.5473C65.0873 11.9914 64.1054 10.6982 62.7739 9.6673C60.9157 8.22915 58.5863 7.51221 55.7873 7.51221C52.5853 7.51221 49.9366 8.49194 47.854 10.4573C45.7714 12.4167 44.7303 14.8741 44.7303 17.8303C44.7303 20.7807 45.7719 23.238 47.854 25.2034C49.9366 27.1623 52.5853 28.1479 55.7873 28.1479C58.5863 28.1479 60.921 27.4262 62.7904 25.9869C64.131 24.9555 65.1123 23.6618 65.7333 22.1064C65.9151 21.6512 65.8639 21.1773 65.5889 20.7711C65.3143 20.3655 64.8932 20.1421 64.4034 20.1421H62.2707C61.7328 20.1421 61.2723 20.415 61.0137 20.8868C60.5798 21.6784 59.9962 22.3484 59.2638 22.891C58.3128 23.5962 57.1529 23.9491 55.7873 23.9491C53.9733 23.9491 52.4952 23.3665 51.3641 22.2023C50.2329 21.0382 49.6679 19.5766 49.6679 17.8303C49.6679 16.0777 50.2329 14.6225 51.3641 13.4572C52.4952 12.2931 53.9728 11.711 55.7873 11.711C57.1529 11.711 58.3123 12.0633 59.2638 12.7749C59.9962 13.3218 60.5793 13.9887 61.0132 14.7765C61.2717 15.2461 61.7318 15.518 62.268 15.518H64.3895C64.881 15.518 65.3037 15.293 65.5777 14.8858C65.8522 14.4785 65.9023 14.0025 65.7179 13.5473H65.7173Z" fill="black"/>
<path d="M68.7125 27.5712H70.6224C71.4118 27.5712 72.0552 26.9279 72.0552 26.1384V16.4194C72.1448 15.283 72.5984 14.3257 73.4155 13.5474C74.1911 12.8139 75.101 12.4291 76.1543 12.387C76.9229 12.3566 77.5301 11.7244 77.5301 10.9552V9.10237C77.5301 8.64075 77.3339 8.24363 76.9672 7.96325C76.6005 7.68341 76.1655 7.59811 75.7204 7.71965C74.3041 8.10504 73.1037 9.13435 72.1224 10.8097H72.0552V9.54959C72.0552 8.76015 71.4118 8.11677 70.6224 8.11677H68.7125C67.9236 8.11677 67.2797 8.76015 67.2797 9.54959V26.1384C67.2797 26.9273 67.923 27.5712 68.7125 27.5712Z" fill="black"/>
<path d="M93.6483 17.815C93.6483 19.4776 93.0715 20.8939 91.9239 22.0698C90.7762 23.2456 89.3711 23.8331 87.708 23.8331C86.0679 23.8331 84.6681 23.2456 83.5039 22.0698C82.3392 20.8939 81.7571 19.4776 81.7571 17.815C81.7571 16.186 82.3392 14.7809 83.5039 13.605C84.6681 12.4291 86.0679 11.8417 87.708 11.8417C89.3594 11.8417 90.765 12.4291 91.9185 13.5992C93.0715 14.7697 93.6483 16.1748 93.6483 17.815ZM98.6194 17.815C98.6194 14.9264 97.5331 12.4904 95.3609 10.5091C93.1888 8.52193 90.6355 7.53101 87.7016 7.53101C84.7683 7.53101 82.2097 8.52193 80.0434 10.5091C77.8712 12.4904 76.7849 14.9264 76.7849 17.815C76.7849 20.7206 77.8766 23.1673 80.0487 25.1545C82.2267 27.1369 84.7795 28.1326 87.707 28.1326C90.6632 28.1326 93.216 27.1363 95.3769 25.1545C97.5379 23.1673 98.6189 20.7206 98.6189 17.815H98.6194Z" fill="black"/>
<path d="M97.1482 8.11694L102.973 25.6114C103.369 26.8022 104.437 27.5714 105.691 27.5714H106.124C107.384 27.5714 108.454 26.7964 108.846 25.5992L112.124 15.6131H112.185L115.448 25.596C115.839 26.7942 116.91 27.5714 118.171 27.5714H118.589C119.841 27.5714 120.907 26.8054 121.305 25.6173L127.177 8.11694H124.348C123.073 8.11694 121.991 8.91278 121.612 10.1302L118.437 20.3215H118.37L115.075 10.1031C114.687 8.89945 113.613 8.11694 112.348 8.11694H111.937C110.667 8.11694 109.588 8.90638 109.205 10.1169L105.971 20.3215H105.903L102.714 10.1265C102.334 8.91118 101.253 8.11694 99.9798 8.11694H97.1477H97.1482Z" fill="black"/>
<path fill-rule="evenodd" clip-rule="evenodd" d="M0.822998 16.2947V22.397C0.822998 23.3229 1.30753 24.1166 2.13108 24.5393C2.95517 24.9609 3.8832 24.8927 4.63479 24.3527L8.8341 21.3394C9.48015 20.8762 9.83303 20.1934 9.83782 19.3981C9.84262 18.6023 9.49721 17.9157 8.85702 17.4445L4.65771 14.3555C3.90825 13.8038 2.97489 13.726 2.14387 14.146C1.31393 14.5666 0.823532 15.364 0.823532 16.2947H0.822998Z" fill="black"/>
<path fill-rule="evenodd" clip-rule="evenodd" d="M25.7726 13.2693V25.42C25.7726 26.098 25.4176 26.6785 24.8152 26.9877C24.2124 27.2968 23.5333 27.2462 22.9832 26.8517L14.6229 20.8502C14.1496 20.5112 13.8916 20.0117 13.8878 19.4297C13.8846 18.847 14.1368 18.3449 14.6059 18L22.9666 11.8498C23.5151 11.4463 24.1985 11.3892 24.8056 11.6963C25.4138 12.0044 25.7726 12.5875 25.7726 13.2687V13.2693Z" fill="black"/>
<path fill-rule="evenodd" clip-rule="evenodd" d="M17.6916 32.1515H6.91989C6.2424 32.1515 5.66138 31.797 5.35221 31.1947C5.04251 30.5918 5.09262 29.9132 5.48814 29.3626L10.8079 21.9506C11.1469 21.4778 11.6464 21.2198 12.2285 21.2161C12.8111 21.2124 13.3132 21.465 13.6581 21.9341L19.1111 29.3461C19.5146 29.8946 19.5717 30.5774 19.2641 31.1851C18.9565 31.7938 18.3734 32.152 17.6922 32.152L17.6916 32.1515Z" fill="black"/>
<path fill-rule="evenodd" clip-rule="evenodd" d="M22.0204 0H2.59206C1.91402 0 1.33355 0.354471 1.02438 0.95681C0.715215 1.56021 0.765851 2.23878 1.1603 2.78888L10.7551 16.1571C11.0946 16.6299 11.5936 16.8873 12.1762 16.8911C12.7588 16.8948 13.2609 16.6421 13.6053 16.1736L23.4394 2.80594C23.8429 2.25744 23.8999 1.57461 23.5929 0.966941C23.2848 0.358739 22.7011 0.000533564 22.0204 0.000533564V0Z" fill="black"/>
</svg>
